<svg xmlns="http://www.w3.org/2000/svg" width="38" height="39" viewBox="0 0 38 39" fill="none">
  <path d="M26.9959 32.61C25.4442 34.1142 23.7501 33.8767 22.1192 33.1642C20.3934 32.4358 18.8101 32.4042 16.9892 33.1642C14.7092 34.1458 13.5059 33.8608 12.1442 32.61C4.41756 24.6458 5.55756 12.5175 14.3292 12.0742C16.4667 12.185 17.9551 13.2458 19.2059 13.3408C21.0742 12.9608 22.8634 11.8683 24.8584 12.0108C27.2492 12.2008 29.0542 13.1508 30.2417 14.8608C25.3017 17.8217 26.4734 24.3292 31.0017 26.15C30.0992 28.525 28.9276 30.8842 26.9801 32.6258L26.9959 32.61ZM19.0476 11.9792C18.8101 8.44833 21.6759 5.535 24.9692 5.25C25.4284 9.335 21.2642 12.375 19.0476 11.9792Z" fill="#1A1A1A"/>
</svg>