<svg xmlns="http://www.w3.org/2000/svg" width="28" height="27" viewBox="0 0 28 27" fill="none">
  <g clip-path="url(#clip0_302_866)">
    <path d="M13.1091 12.8719L0.611816 24.7161C0.75216 25.166 1.00436 25.5809 1.34914 25.9291C1.69392 26.2774 2.12216 26.5497 2.6011 26.7252C3.08005 26.9008 3.59703 26.975 4.11253 26.9421C4.62803 26.9092 5.1284 26.7702 5.57539 26.5356L19.6372 19.291L13.1091 12.8719Z" fill="#EA4335"/>
    <path d="M25.7461 10.8586L19.6653 7.70789L12.8206 13.1413L19.6931 19.274L25.7276 16.1571C26.2622 15.9039 26.71 15.5231 27.0224 15.0561C27.3348 14.5891 27.5 14.0536 27.5 13.5078C27.5 12.9619 27.3348 12.4265 27.0224 11.9595C26.71 11.4924 26.2622 11.1117 25.7276 10.8585L25.7461 10.8586Z" fill="#FBBC04"/>
    <path d="M0.611832 2.24081C0.536293 2.49343 0.498689 2.7541 0.500035 3.0158V23.941C0.500818 24.2026 0.538385 24.463 0.611832 24.7161L13.5376 13.1751L0.611832 2.24081Z" fill="#4285F4"/>
    <path d="M13.2023 13.4784L19.6652 7.70795L5.622 0.42959C5.09364 0.149675 4.4927 0.00143708 3.8804 -2.46663e-05C2.36091 -0.00269604 1.02504 0.90958 0.611816 2.23239L13.2023 13.4784Z" fill="#34A853"/>
  </g>
  <defs>
    <clipPath id="clip0_302_866">
      <rect width="27" height="27" fill="white" transform="translate(0.5)"/>
    </clipPath>
  </defs>
</svg>