<svg width="26" height="26" viewBox="0 0 26 26" fill="none" xmlns="http://www.w3.org/2000/svg">
<g id="detail laporan 1" clip-path="url(#clip0_1405_2478)">
<path id="Vector" d="M18.4167 10.8333C14.235 10.8333 10.8333 14.235 10.8333 18.4167C10.8333 22.5983 14.235 26 18.4167 26C22.5983 26 26 22.5983 26 18.4167C26 14.235 22.5983 10.8333 18.4167 10.8333ZM18.4167 23.8333C15.4267 23.8333 13 21.4067 13 18.4167C13 15.4267 15.4267 13 18.4167 13C21.4067 13 23.8333 15.4267 23.8333 18.4167C23.8333 21.4067 21.4067 23.8333 18.4167 23.8333ZM17.3333 15.1667H19.5V17.3333H17.3333V15.1667ZM17.3333 18.4167H19.5V21.6667H17.3333V18.4167ZM2.16667 21.6667V3.25C2.16667 2.65417 2.65417 2.16667 3.25 2.16667H10.8333V8.66667H19.5V7.13917L12.3608 0H3.25C1.4625 0 0 1.4625 0 3.25V23.8333H10.3133C9.86917 23.1617 9.51167 22.4358 9.24083 21.6667H2.16667ZM13 3.69417L15.8058 6.5H13V3.69417Z" fill="#131313"/>
</g>
<defs>
<clipPath id="clip0_1405_2478">
<rect width="26" height="26" fill="white"/>
</clipPath>
</defs>
</svg>
