<svg width="26" height="26" viewBox="0 0 26 26" fill="none" xmlns="http://www.w3.org/2000/svg">
<g id="laporan diterima 1" clip-path="url(#clip0_1405_2481)">
<path id="Vector" d="M23.1988 5.41667H18.417V0.634833L23.1988 5.41667ZM23.8337 7.58333V26H2.16699V3.25C2.16699 2.38805 2.5094 1.5614 3.1189 0.951903C3.72839 0.34241 4.55504 0 5.41699 0L16.2503 0V7.58333H23.8337ZM17.9956 14.664L16.467 13.1322L12.5778 17.0159C12.3718 17.213 12.0976 17.3231 11.8125 17.3231C11.5273 17.3231 11.2531 17.213 11.0471 17.0159L9.32891 15.2988L7.80033 16.8307L9.51741 18.5478C9.81921 18.8496 10.1775 19.089 10.5719 19.2524C10.9662 19.4158 11.3889 19.4998 11.8157 19.4998C12.2425 19.4998 12.6652 19.4158 13.0595 19.2524C13.4539 19.089 13.8122 18.8496 14.114 18.5478L17.9956 14.664Z" fill="#1A1A1A"/>
</g>
<defs>
<clipPath id="clip0_1405_2481">
<rect width="26" height="26" fill="white"/>
</clipPath>
</defs>
</svg>
