<svg width="27" height="24" viewBox="0 0 27 24" fill="none" xmlns="http://www.w3.org/2000/svg">
<path id="Vector" d="M26.1925 10.4078L21.481 1.72973C20.9026 0.662683 19.779 0 18.549 0H8.07005C6.84342 0 5.72095 0.660503 5.14032 1.72428L0.405553 10.4067C-0.135184 11.3997 -0.135184 12.5855 0.405553 13.5796L5.13811 22.2533C5.71763 23.3171 6.8401 23.9776 8.06784 23.9776H18.5468C19.7768 23.9776 20.9004 23.3149 21.4788 22.2478L26.1903 13.5697C26.7277 12.5801 26.7277 11.3975 26.1903 10.4078H26.1925ZM13.1971 15.7158C12.7694 16.1376 12.2043 16.348 11.638 16.348C11.0718 16.348 10.5023 16.1355 10.069 15.7104L6.98636 12.7719L8.52879 11.2057L11.6236 14.1561L18.0604 7.94239L19.6161 9.49555L13.1971 15.7158Z" fill="black"/>
</svg>
