<svg width="24" height="24" viewBox="0 0 24 24" fill="none" xmlns="http://www.w3.org/2000/svg">
<g id="chat admin 1" clip-path="url(#clip0_2541_3227)">
<path id="Vector" d="M21.999 0L15.999 0.002C14.899 0.002 13.999 0.903 14 2.003L14.002 9.775C14.002 10.633 14.951 11.153 15.674 10.69L18.128 9.001H24V2C24 0.895 23.104 0 21.999 0ZM19.468 6.666C19.009 7.14 18.248 7.137 17.793 6.659L15.756 4.507L17.143 3.066L18.639 4.647L21.182 2.016L22.58 3.446L19.467 6.667L19.468 6.666ZM7.499 12C10.531 12 12.999 9.533 12.999 6.5C12.999 3.467 10.532 1 7.5 1C4.468 1 2 3.467 2 6.5C2 9.533 4.467 12 7.499 12ZM7.499 3C9.429 3 10.999 4.57 10.999 6.5C10.999 8.43 9.429 10 7.499 10C5.569 10 3.999 8.43 3.999 6.5C3.999 4.57 5.569 3 7.499 3ZM14.999 18.5V24H12.999V18.5C12.999 17.122 11.878 16 10.499 16H4.499C3.12 16 1.999 17.122 1.999 18.5V24H0V18.5C0 16.019 2.019 14 4.5 14H10.5C12.981 14 15 16.019 15 18.5H14.999Z" fill="black"/>
</g>
<defs>
<clipPath id="clip0_2541_3227">
<rect width="24" height="24" fill="white"/>
</clipPath>
</defs>
</svg>
