<svg width="24" height="24" viewBox="0 0 24 24" fill="none" xmlns="http://www.w3.org/2000/svg">
<g id="material-symbols:folder-managed-outline">
<path id="Vector" d="M17 22L16.7 20.5C16.5 20.4167 16.3127 20.3293 16.138 20.238C15.9633 20.1467 15.784 20.034 15.6 19.9L14.15 20.35L13.15 18.65L14.3 17.65C14.2667 17.45 14.25 17.2333 14.25 17C14.25 16.7667 14.2667 16.55 14.3 16.35L13.15 15.35L14.15 13.65L15.6 14.1C15.7833 13.9667 15.9627 13.8543 16.138 13.763C16.3133 13.6717 16.5007 13.584 16.7 13.5L17 12H19L19.3 13.5C19.5 13.5833 19.6877 13.671 19.863 13.763C20.0383 13.855 20.2173 13.9673 20.4 14.1L21.85 13.65L22.85 15.35L21.7 16.35C21.7333 16.55 21.75 16.7667 21.75 17C21.75 17.2333 21.7333 17.45 21.7 17.65L22.85 18.65L21.85 20.35L20.4 19.9C20.2167 20.0333 20.0377 20.146 19.863 20.238C19.6883 20.33 19.5007 20.4173 19.3 20.5L19 22H17ZM18 19C18.55 19 19.021 18.8043 19.413 18.413C19.805 18.0217 20.0007 17.5507 20 17C19.9993 16.4493 19.8037 15.9787 19.413 15.588C19.0223 15.1973 18.5513 15.0013 18 15C17.4487 14.9987 16.978 15.1947 16.588 15.588C16.198 15.9813 16.002 16.452 16 17C15.998 17.548 16.194 18.019 16.588 18.413C16.982 18.807 17.4527 19.0027 18 19ZM4 18V6V10.3V10V18ZM4 20C3.45 20 2.97933 19.8043 2.588 19.413C2.19667 19.0217 2.00067 18.5507 2 18V6C2 5.45 2.196 4.97933 2.588 4.588C2.98 4.19667 3.45067 4.00067 4 4H10L12 6H20C20.55 6 21.021 6.196 21.413 6.588C21.805 6.98 22.0007 7.45067 22 8V11.275C21.7 11.0583 21.3833 10.871 21.05 10.713C20.7167 10.555 20.3667 10.4173 20 10.3V8H11.175L9.175 6H4V18H11.075C11.125 18.35 11.2043 18.6917 11.313 19.025C11.4217 19.3583 11.5507 19.6833 11.7 20H4Z" fill="black"/>
</g>
</svg>
