<svg width="22" height="22" viewBox="0 0 22 22" fill="none" xmlns="http://www.w3.org/2000/svg">
<g clip-path="url(#clip0_4038_2705)">
<path d="M20.1658 0L14.6657 0.00183333C13.6574 0.00183333 12.8324 0.82775 12.8333 1.83608L12.8352 8.96042C12.8352 9.74692 13.7051 10.2236 14.3678 9.79917L16.6173 8.25092H22V1.83333C22 0.820417 21.1787 0 20.1658 0ZM17.8457 6.1105C17.4249 6.545 16.7273 6.54225 16.3102 6.10408L14.443 4.13142L15.7144 2.8105L17.0858 4.25975L19.4168 1.848L20.6983 3.15883L17.8447 6.11142L17.8457 6.1105ZM6.87408 11C9.65342 11 11.9157 8.73858 11.9157 5.95833C11.9157 3.17808 9.65433 0.916667 6.875 0.916667C4.09567 0.916667 1.83333 3.17808 1.83333 5.95833C1.83333 8.73858 4.09475 11 6.87408 11ZM6.87408 2.75C8.64325 2.75 10.0824 4.18917 10.0824 5.95833C10.0824 7.7275 8.64325 9.16667 6.87408 9.16667C5.10492 9.16667 3.66575 7.7275 3.66575 5.95833C3.66575 4.18917 5.10492 2.75 6.87408 2.75ZM13.7491 16.9583V22H11.9157V16.9583C11.9157 15.6952 10.8882 14.6667 9.62408 14.6667H4.12408C2.86 14.6667 1.83242 15.6952 1.83242 16.9583V22H0V16.9583C0 14.6841 1.85075 12.8333 4.125 12.8333H9.625C11.8993 12.8333 13.75 14.6841 13.75 16.9583H13.7491Z" fill="black"/>
</g>
<defs>
<clipPath id="clip0_4038_2705">
<rect width="22" height="22" fill="white"/>
</clipPath>
</defs>
</svg>
