<svg width="27" height="27" viewBox="0 0 27 27" fill="none" xmlns="http://www.w3.org/2000/svg">
<path d="M26 14C26 13.3096 25.4404 12.75 24.75 12.75C24.0596 12.75 23.5 13.3096 23.5 14H26ZM13.5 4C14.1904 4 14.75 3.44036 14.75 2.75C14.75 2.05964 14.1904 1.5 13.5 1.5V4ZM22.875 24H4.125V26.5H22.875V24ZM3.5 23.375V4.625H1V23.375H3.5ZM23.5 14V23.375H26V14H23.5ZM4.125 4H13.5V1.5H4.125V4ZM4.125 24C3.77982 24 3.5 23.7202 3.5 23.375H1C1 25.1009 2.39911 26.5 4.125 26.5V24ZM22.875 26.5C24.6009 26.5 26 25.1009 26 23.375H23.5C23.5 23.7202 23.2202 24 22.875 24V26.5ZM3.5 4.625C3.5 4.27982 3.77982 4 4.125 4V1.5C2.39911 1.5 1 2.89911 1 4.625H3.5Z" fill="#6B7280"/>
<path d="M2.25 20.8747L8.93319 14.7485C9.39931 14.3212 10.1112 14.3093 10.5913 14.7209L18.5 21.4997" stroke="#6B7280" stroke-width="4" stroke-linecap="round" stroke-linejoin="round"/>
<path d="M16 18.3749L18.9834 15.3915C19.4232 14.9517 20.1196 14.9022 20.6173 15.2754L24.75 18.3749" stroke="#6B7280" stroke-width="4" stroke-linecap="round" stroke-linejoin="round"/>
<path d="M17.25 6.5H24.75" stroke="#6B7280" stroke-width="4" stroke-linecap="round" stroke-linejoin="round"/>
<path d="M21 2.75V10.25" stroke="#6B7280" stroke-width="4" stroke-linecap="round" stroke-linejoin="round"/>
</svg>
