<svg width="1436" height="723" viewBox="0 0 1436 723" fill="none" xmlns="http://www.w3.org/2000/svg">
<path d="M60.8027 720.904C79.9273 633.925 163.711 453.934 345.85 429.801C573.523 399.634 738.725 569.033 993.432 516.884C1197.2 475.164 1367.35 156.551 1426.96 2.45902M1.65942 417.075C35.8626 483.23 150.647 606.342 336.161 569.556C568.053 523.574 875.826 89.1911 1172.87 125.287C1410.51 154.163 1612.55 193.673 1683.87 209.819M6.48094 588.331C18.6591 483.663 98.3102 264.846 319.49 226.921C595.964 179.514 803.569 370.85 1102.18 312.907C1341.06 266.552 1498.15 124.737 1546.84 59.6246" stroke="#FACC15" stroke-width="3" stroke-linecap="round"/>
</svg>
